<svg width="24" height="24" viewBox="0 0 24 24" fill="none" xmlns="http://www.w3.org/2000/svg">
<circle cx="12" cy="12" r="1" fill="#FF8C00"/>
<path d="M16.5 12C16.5 14.7006 15.9516 17.1209 15.0883 18.8475C14.2101 20.604 13.0893 21.5 12 21.5C10.9107 21.5 9.78993 20.604 8.91168 18.8475C8.04839 17.1209 7.5 14.7006 7.5 12C7.5 9.29937 8.04839 6.87912 8.91168 5.15254C9.78993 3.39605 10.9107 2.5 12 2.5C13.0893 2.5 14.2101 3.39605 15.0883 5.15254C15.9516 6.87912 16.5 9.29937 16.5 12Z" stroke="#FF8C00"/>
<path d="M14.2499 15.8972C11.9111 17.2475 9.5409 17.9827 7.61399 18.0983C5.6537 18.216 4.31731 17.6934 3.77266 16.75C3.22801 15.8067 3.44362 14.388 4.52567 12.7492C5.58929 11.1383 7.41109 9.45325 9.7499 8.10293C12.0887 6.75262 14.4589 6.01741 16.3858 5.90175C18.3461 5.78409 19.6825 6.30669 20.2271 7.25005C20.7718 8.19341 20.5562 9.61205 19.4741 11.2509C18.4105 12.8618 16.5887 14.5468 14.2499 15.8972Z" stroke="#FF8C00"/>
<path d="M14.2499 8.10284C11.9111 6.75252 9.5409 6.01732 7.61399 5.90166C5.6537 5.78399 4.31731 6.30659 3.77266 7.24995C3.22801 8.19331 3.44362 9.61196 4.52567 11.2508C5.58929 12.8617 7.41109 14.5467 9.7499 15.8971C12.0887 17.2474 14.4589 17.9826 16.3858 18.0982C18.3461 18.2159 19.6825 17.6933 20.2271 16.75C20.7718 15.8066 20.5562 14.3879 19.4741 12.7491C18.4105 11.1382 16.5887 9.45315 14.2499 8.10284Z" stroke="#FF8C00"/>
</svg>
