<svg width="22" height="21" viewBox="0 0 22 21" fill="none" xmlns="http://www.w3.org/2000/svg">
<path d="M7.41141 19.4893L10.5992 16.3015M10.5992 16.3015L13.787 19.4893M10.5992 16.3015V4.18781M13.787 1L10.5992 4.18781M10.5992 4.18781L7.41141 1M1 12.1063L5.35463 13.2731M5.35463 13.2731L4.18781 17.6277M5.35463 13.2731L15.8454 7.21626M20.2 8.38308L15.8454 7.21626M15.8454 7.21626L17.0122 2.86163M4.18781 2.86163L5.35463 7.21626M5.35463 7.21626L1 8.38307M5.35463 7.21626L15.8454 13.2731M17.0122 17.6277L15.8454 13.2731M15.8454 13.2731L20.2 12.1063" stroke="#4083FF" stroke-width="2" stroke-linecap="round" stroke-linejoin="round"/>
</svg>
